<svg preserveAspectRatio="none" width="956" height="157" overflow="visible" style="display: block;" viewBox="0 0 956 157" fill="none" xmlns="http://www.w3.org/2000/svg">
<g id="The GTM Hackathon">
<path d="M185.388 13.2804V66.0382H172.037V13.2804H132.35V0H225.257V13.2804H185.388Z" fill="var(--fill-0, #0a0a0a)" style="fill:#0a0a0a;fill:color(display-p3 0.039 0.039 0.039);fill-opacity:1;"/>
<path d="M319.793 66.0382V39.6593H253.587V66.0382H240.236V0H253.587V26.3789H319.793V0H333.144V66.0382H319.793Z" fill="var(--fill-0, #0a0a0a)" style="fill:#0a0a0a;fill:color(display-p3 0.039 0.039 0.039);fill-opacity:1;"/>
<path d="M348.123 66.0382V13.2804H361.291V0H441.03V13.2804H361.474V26.3789H441.03V39.6593H361.474V52.7578H441.03V66.0382H348.123Z" fill="var(--fill-0, #0a0a0a)" style="fill:#0a0a0a;fill:color(display-p3 0.039 0.039 0.039);fill-opacity:1;"/>
<path d="M511.696 66.0382V52.9397H498.528V0H578.084V13.2804H511.878V52.7578H578.084V39.6593H525.046V26.3789H591.435V66.0382H511.696Z" fill="var(--fill-0, #0a0a0a)" style="fill:#0a0a0a;fill:color(display-p3 0.039 0.039 0.039);fill-opacity:1;"/>
<path d="M659.452 13.2804V66.0382H646.101V13.2804H606.414V0H699.322V13.2804H659.452Z" fill="var(--fill-0, #0a0a0a)" style="fill:#0a0a0a;fill:color(display-p3 0.039 0.039 0.039);fill-opacity:1;"/>
<path d="M820.376 66.0382V26.5608H807.208V39.6593H793.857V52.9397H780.689V66.0382H767.338V26.5608H754.17V39.6593H740.82V52.9397H727.652V66.0382H714.301V52.7578H727.469V39.6593H740.82V26.3789H753.988V13.2804H767.338V0H780.689V39.6593H793.857V26.3789H807.025V13.2804H820.376V0H833.727V66.0382H820.376Z" fill="var(--fill-0, #0a0a0a)" style="fill:#0a0a0a;fill:color(display-p3 0.039 0.039 0.039);fill-opacity:1;"/>
<path d="M79.5567 157V130.621H13.3509V157H0V90.9618H13.3509V117.341H79.5567V90.9618H92.9075V157H79.5567Z" fill="var(--fill-0, #0a0a0a)" style="fill:#0a0a0a;fill:color(display-p3 0.039 0.039 0.039);fill-opacity:1;"/>
<path d="M187.443 157V143.902H121.237V157H107.887V143.72H121.055V130.621H134.405V117.341H147.573V104.242H160.924V90.9618H200.794V157H187.443ZM187.443 104.242H161.199V117.523H147.756V130.621H187.443V104.242Z" fill="var(--fill-0, #0a0a0a)" style="fill:#0a0a0a;fill:color(display-p3 0.039 0.039 0.039);fill-opacity:1;"/>
<path d="M215.773 157V90.9618H308.681V117.523H295.33V104.242H229.124V143.72H308.681V157H215.773Z" fill="var(--fill-0, #0a0a0a)" style="fill:#0a0a0a;fill:color(display-p3 0.039 0.039 0.039);fill-opacity:1;"/>
<path d="M403.216 157V130.621H337.011V157H323.66V90.9618H337.011V117.341H376.697V104.242H389.865V90.9618H403.216V104.242H390.048V117.341H403.216V130.621H416.567V157H403.216Z" fill="var(--fill-0, #0a0a0a)" style="fill:#0a0a0a;fill:color(display-p3 0.039 0.039 0.039);fill-opacity:1;"/>
<path d="M511.103 157V143.902H444.897V157H431.546V143.72H444.714V130.621H458.065V117.341H471.233V104.242H484.584V90.9618H524.454V157H511.103ZM511.103 104.242H484.858V117.523H471.416V130.621H511.103V104.242Z" fill="var(--fill-0, #0a0a0a)" style="fill:#0a0a0a;fill:color(display-p3 0.039 0.039 0.039);fill-opacity:1;"/>
<path d="M592.471 104.242V157H579.12V104.242H539.433V90.9618H632.34V104.242H592.471Z" fill="var(--fill-0, #0a0a0a)" style="fill:#0a0a0a;fill:color(display-p3 0.039 0.039 0.039);fill-opacity:1;"/>
<path d="M726.876 157V130.621H660.67V157H647.319V90.9618H660.67V117.341H726.876V90.9618H740.227V157H726.876Z" fill="var(--fill-0, #0a0a0a)" style="fill:#0a0a0a;fill:color(display-p3 0.039 0.039 0.039);fill-opacity:1;"/>
<path d="M834.763 143.902V157H755.206V104.242H768.374V90.9618H848.113V143.902H834.763ZM834.671 104.242H768.557V143.72H834.671V104.242Z" fill="var(--fill-0, #0a0a0a)" style="fill:#0a0a0a;fill:color(display-p3 0.039 0.039 0.039);fill-opacity:1;"/>
<path d="M929.298 157V143.902H916.13V130.621H902.779V117.523H889.611V104.242H902.962V117.341H916.13V130.621H929.481V143.72H942.649V90.9618H956V157H929.298ZM889.611 104.242H876.443V157H863.093V90.9618H889.611V104.242Z" fill="var(--fill-0, #0a0a0a)" style="fill:#0a0a0a;fill:color(display-p3 0.039 0.039 0.039);fill-opacity:1;"/>
</g>
</svg>
